<?xml version="1.0" encoding="utf-8"?>
<!-- Generator: Adobe Illustrator 24.0.2, SVG Export Plug-In . SVG Version: 6.00 Build 0)  -->
<svg version="1.1" xmlns="http://www.w3.org/2000/svg" xmlns:xlink="http://www.w3.org/1999/xlink" x="0px" y="0px"
	 viewBox="0 0 801 1000" style="enable-background:new 0 0 801 1000;" xml:space="preserve">
<style type="text/css">
	.st0{fill:#FDFDFD;}
	.st1{fill:#5E5E5E;}
	.st2{fill:#E38921;}
	.st3{fill:#FFFFFF;}
</style>
<g id="Layer_3">
	<rect x="-32.16" y="-25.49" class="st0" width="865.68" height="1038.18"/>
</g>
<g id="Layer_1">
	<path class="st0" d="M171.05,999.9c-56.99,0-113.97,0-170.96,0C0.09,668.13,0.1,336.36,0,4.59C0,0.85,0.84,0,4.59,0
		c263.94,0.1,527.88,0.1,791.82,0c3.75,0,4.59,0.84,4.59,4.59c-0.1,330.27-0.1,660.54,0,990.81c0,3.74-0.84,4.61-4.59,4.6
		c-59.15-0.14-118.31-0.1-177.46-0.1c0-1.76,0-3.53,0-5.46c-2.79,2.6-8.9,3.76-10.18,1.71c-1.95-3.11-2.05-7.52-0.33-9.95
		c1.78-2.51,5.78-1.33,8.56,1.25c0.21-1.75,0.38-3.18,0.55-4.58c-3.4-0.68-7.41,1.95-9.39-1.2c-1.27-2.03-1.57-6.53,0.3-7.98
		c2.59-1.99,6.33-0.66,9.89,2.11c-1.06-2.33,1.21-4.93-2.22-5c-5.51-0.11-11.02-0.03-16.52-0.03c2.81,0.99,2.59,3.12,2.59,5.09
		c0.01,5.83,0.06,11.66-0.03,17.49c-0.03,1.7,0.74,3.92-1.53,4.81c-2.01,0.8-4.11,0.25-5.6-1.16c-2.52-2.4-4.7-5.15-7.17-7.62
		c-2.04-2.03-2.97-3.61-0.13-5.95c2.37-1.95,3.72-4.75,2.32-8.04c-1.34-3.15-4.02-4.38-7.19-4.5c-4.15-0.15-8.3-0.04-13.62-0.04
		c2.95,1.68,2.59,3.75,2.6,5.7c0.02,5.16-0.22,10.34,0.09,15.49c0.19,3.23-0.69,5.72-3,7.83c-2,0-4,0-6,0
		c1.13-4.96-2.29-2.77-4.4-2.88c-2.14-0.11-5.21,1.02-5.59-2.43c-0.33-3.01-1.64-6.91,0.93-8.88c2-1.53,5.59-1.24,7.91,2.32
		c0.2-2.27,0.34-3.83,0.47-5.38c-3.37-0.33-7.31,2.2-9.16-1.21c-1.14-2.1-1.59-6.64,0.46-7.92c2.55-1.58,6.38-0.83,8.83,2.15
		c1.5-4.21-0.04-5.23-3.85-4.93c-4.29,0.34-8.62,0.08-13.9,0.08c2.64,1.61,2.46,3.54,2.45,5.43c-0.02,5.49-0.2,10.99,0.04,16.47
		c0.13,3.09-0.82,5.37-3.2,7.17c-1.67,0-3.33,0-5,0c-3.59-1.62-4.6-4.4-4.37-8.24c0.31-5.14,0.05-10.32,0.08-15.48
		c0.01-2.01-0.37-4.22,2.18-5.21c-3.13,0-6.26,0-9.5,0c1.76,2.73,2.38,10.59,1.01,11.67c-0.64,0.51-13.22,0.44-13.81-0.08
		c-1.39-1.23-0.33-9.33,1.42-11.49c-3.24,0-6.57,0-9.9,0c2.75,0.73,2.75,2.74,2.73,4.86c-0.05,5.33-0.12,10.66,0,15.99
		c0.07,3.09-0.48,5.83-2.85,7.99c-8.33,0-16.66,0-24.99,0c0.35-0.49,0.62-1.08,1.07-1.46c5.8-4.82,5.62-10.8-0.55-15.22
		c-1.48-1.06-3.21-1.75-4.73-2.76c-2.22-1.47-4.17-3.41-2.22-6.12c1.92-2.65,4.84-2.81,7.55-1.14c1.11,0.68,1.77,2.09,2.64,3.17
		c0.25-1.89,1.63-3.89-0.14-5.44c-2.51-2.21-10.82-0.56-13.43,2.5c-2.68,3.13-2.37,7.57,1.11,10.66c2.09,1.85,4.7,3.09,6.96,4.75
		c2.08,1.52,2.93,3.61,1.84,6.12c-1.1,2.53-3.26,3.14-5.77,2.85c-3.2-0.36-5.05-2.36-5.92-6.48c-1.02,3.8-1.3,6.3,0.59,8.56
		c-2.67,0-5.33,0-8,0c-0.28-1.92,1.41-3.69,0.45-5.71c-2.58,2.7-8.6,4.11-10.08,2.04c-2.17-3.03-2.24-7.45-0.51-9.87
		c2.04-2.86,5.97-1.33,8.7,1.04c1.23-3.8,0.16-5.24-3.55-4.47c-1.11,0.23-2.32-0.01-3.48,0.04c-2.65,0.11-2.51-1.82-2.23-3.39
		c0.39-2.19-1.63-5.52,1.64-6.35c2.61-0.66,5.82-0.69,7.97,2.08c0.82-4.49,0.82-4.48-3.19-4.48c-4.43,0.01-8.86,0-14.04,0
		c2.26,1.91,2.27,3.85,2.25,5.86c-0.06,5.14-0.27,10.31,0.06,15.43c0.21,3.24-0.74,5.67-2.98,7.8c-5,0-10,0-15,0
		c0.19-1.28,1.43-1.19,2.21-1.62c7.61-4.14,10.71-12.86,7.16-20.26c-3.32-6.92-13.21-9.91-21.73-6.57
		c-7.39,2.89-10.99,10.6-8.68,18.28c1.57,5.22,5.75,7.72,10.05,10.17c-7,0-14,0-21,0c3.07-1.21,4.27-3.31,3.95-6.71
		c-0.26-2.73-1.02-5.8,2.19-8.01c-3.79,0-7.06,0-10.47,0c2.19,2.13,3.5,9.37,2.23,11.47c-0.62,1.02-1.59,1.09-2.6,1.09
		c-5.18-0.02-9.54-1.78-12.02-6.54c-2.63-5.03-2.99-10.33,0.45-15.09c3.21-4.44,8.07-3.96,12.77-3.1c2.92,0.53,4.94,2.42,6.51,5.02
		c-0.84-2.41,2.79-6.06-1.92-7.01c-4.73-0.95-9.53-1.37-14.34-0.12c-6.36,1.65-10.44,6.26-11.02,12.57
		c-0.65,7.11,2.07,11.77,8.47,14.81c0.96,0.45,2.42,0.18,2.81,1.63c-10,0-20,0-29.99,0c-0.54-1.81,1.39-3.61,0.19-5.59
		c-2.45,2.58-8.41,3.94-9.81,2.02c-2.23-3.05-2.15-7.47-0.51-9.92c2.13-3.17,5.91-1.03,8.69,1.14c0.7-3.31,1.01-5.94-3.55-4.64
		c-1.07,0.31-2.31,0.01-3.47,0.02c-2.66,0.03-2.44-1.99-2.12-3.49c0.46-2.14-1.82-5.45,1.72-6.25c2.64-0.59,5.75-0.64,7.7,2.38
		c1.38-3.37,1.26-5.18-3-4.84c-4.44,0.36-8.94,0.08-14.76,0.08c3.14,1.74,2.83,3.8,2.83,5.77c0.01,5.15-0.17,10.3,0.04,15.43
		c0.13,3.16-0.66,5.74-2.94,7.88c-3,0-6,0-9,0c-0.5-9.68-0.33-19.32,0.49-28.93c-1.36,0-4,0-5.6,0c2.82,6.34,1.34,13.1,2.08,20.49
		c-7.14-7.01-13.42-13.18-19.71-19.34c-0.8-0.78-1.54-2.18-2.8-1.35c-0.55,0.36-0.51,1.78-0.53,2.72
		c-0.14,6.16-0.33,12.32-0.27,18.48c0.03,3.33-0.46,6.19-3.66,7.93c-1.33,0-2.67,0-4,0c-3.67-1.89-4.38-5-4.15-8.86
		c0.29-4.98,0.16-10,0.03-14.99c-0.05-2.06,0.27-3.79,2.43-4.96c-3.73,0-6.93,0-11.3,0c3.64,1.19,3.33,3.32,3.33,5.29
		c0.02,5.33-0.12,10.67,0.07,15.99c0.12,3.19-0.25,5.92-3.4,7.53c-1.33,0-2.67,0-4,0c-0.28-1.94,1.34-3.73,0.47-5.79
		c-0.42,0.36-0.87,0.63-1.15,1.01c-2.39,3.25-5.79,2.07-8.69,1.59c-3.11-0.52-2.24-3.67-2.34-5.79c-0.2-4.3-0.11-8.62-0.02-12.94
		c0.15-7.61,0.19-7.61-8.33-6.66c2.82,0.42,3.03,2.31,3.02,4.41c-0.03,5.47-0.17,10.96,0.09,16.42c0.15,3.18-0.67,5.7-3.04,7.74
		c-3.67,0-7.33,0-11,0c2.66-1.25,3.62-3.21,3.27-6.23c-0.33-2.91-0.89-6.07,1.88-8.39c-3.49,0-6.68,0-10.56,0
		c5.09,2.38,2.75,6.34,3.19,9.52c0.29,2.12-1.03,2.98-3.05,2.94c-5.16-0.11-9.44-1.88-12.09-6.57c-2.58-4.57-2.32-11.66,0.56-15.17
		c3.51-4.28,8.18-3.76,12.87-2.97c2.95,0.5,4.73,2.62,6.45,4.99c-0.75-2.4,2.69-5.97-1.77-6.93c-4.71-1.02-9.54-1.48-14.36-0.25
		c-6.32,1.61-10.65,6.25-11.39,12.4c-0.83,6.82,1.97,11.72,8.35,14.95c0.91,0.46,2.44,0.16,2.66,1.73c-3.67,0-7.33,0-11,0
		c-3.51-2.19-5.26-5.61-6.8-9.29c-2.91-6.97-6.02-13.85-9.26-21.24c-2.7,3.46-3.43,6.95-5.02,9.99
		c-3.59,6.87-4.71,15.06-10.91,20.54c-1,0-2,0-3,0c-3.45-1.96-3.96-5.12-3.83-8.73c0.15-4.15-0.01-8.32,0-12.48
		c0-5.51,1.95-6.88,7.28-5.02c1.08,0.38,2.01,1.18,3.04,1.81c0.97-3.79-0.28-4.97-3.95-4.78c-5.97,0.32-12.01,0.48-17.96-0.03
		c-4.22-0.36-4.64,1.45-4.48,4.92c1.24-0.8,2.07-1.57,3.06-1.92c5.61-2.02,7.85-0.45,7.84,5.42c0,4.33-0.23,8.66,0,12.98
		C174.24,995.25,173.4,997.8,171.05,999.9z M605.35,234.44c23.57-15.79,39.05-37.71,47.38-64.52c8.3-26.73,7.28-53.07-3.33-79.45
		c-7.53-18.73-18.61-34.33-33.29-47.73c-1.31-1.19-2.47-3.19-4.85-2.35c1.12,1.86,2.21,3.53,3.15,5.28
		c24.6,45.58,28.43,93.1,13.07,142.34c-5.14,16.47-13.44,31.43-22.68,45.9c-0.43,0.17-0.83,0.41-0.48,0.91
		C604.38,234.89,605,234.58,605.35,234.44z M415.94,823c0.16,0.05,0.31,0.1,0.47,0.16c-0.13-0.08-0.25-0.16-0.38-0.24
		c-2.54-5.48-6.97-9.58-10.48-14.36c-8.19-11.14-16.92-21.99-22.08-34.95c-9.25-23.23-6.82-46.73-0.82-70.24
		c5.55-21.73,14.48-42.11,24.06-62.29c12.01-25.3,22.74-51.11,28.01-78.79c5.43-28.5,0.68-56.21-7.38-83.61
		c-0.24,1.08-0.3,2.17-0.23,3.25c2.15,32.34-6.19,62.32-20.29,91.05c-19.71,40.15-48.27,70.37-92.66,82.92
		c-2.13,0.6-4.19,1.49-6.28,2.24c20.72,2.01,41.34,4.99,61.38-6.89c-3.24,9.38-6.05,17.17-8.63,25.04
		c-7.71,23.54-12.9,47.39-10.73,72.5c2.55,29.46,16.39,51.54,41.54,66.71C398.95,820.03,407.05,822.89,415.94,823z M135.46,559.61
		c-0.35-0.03-0.69-0.06-1.04-0.09c0.19,0.18,0.38,0.35,0.57,0.53c15.79,24.71,31.98,49.1,54.51,68.43
		c12.81,10.99,26.67,20.12,42.85,25.58c26.9,9.07,53.16,3.36,79.7-3.17c-43.79,3.95-75.79-17.78-104.91-47.43
		c20.89-1.47,41.4-2.14,60.91-9.03c19.4-6.85,36.62-17.55,52.91-30.78c-58.64,0.93-112.37-12.73-159.61-51.29
		c44.07,3.69,86.82,10.84,129.17-2.12c-1.75-0.28-3.51-0.25-5.26-0.29c-15.66-0.41-31.26-1.54-46.68-4.47
		c-41.26-7.84-78.94-24.68-114.73-46.09c-28.42-17-54.76-36.8-77.23-61.19c-12.38-13.44-23.57-28.01-34.5-42.7
		c-3.35-4.51-6.83-8.93-10.25-13.39c6.04,20.73,13.26,40.88,22.7,60.15c21.35,43.57,51.45,80.31,87.86,112.09
		c14.33,12.51,29.61,23.78,46.48,32.53c24.97,12.94,51.92,19.31,79.77,22.2c6.42,0.66,12.82,1.54,19.24,2.32
		c-0.03,0.41-0.05,0.82-0.08,1.24c-2.39,0.19-4.81,0.24-7.18,0.59c-22.52,3.31-44.83,2-66.99-2.89
		C167.59,566.79,151.53,563.19,135.46,559.61z M798.93,343.06c-1.7,0.64-2.29,2.33-3.28,3.6c-8.11,10.35-16.28,20.67-24.22,31.16
		c-16.13,21.32-35.65,39.38-56.07,56.27c-6.61,5.47-14.27,10.47-21.86,15.15c-14.46,8.92-28.88,17.85-44.06,25.5
		c-31.69,15.98-64.64,28.17-100.06,32.78c-12.77,1.66-25.62,2.35-38.54,2.91c1.51,0.74,3.05,1.17,4.61,1.56
		c29.87,7.52,60.07,6.49,90.36,3.51c10.8-1.06,21.58-2.64,33.62-2.66c-1.51,1.22-2.11,1.73-2.73,2.2
		c-21.08,16.01-44.06,28.49-69.15,36.96c-25.07,8.46-51.19,9.94-77.33,11.15c-3.37,0.15-6.82-0.22-10.73,1.13
		c15.14,11.84,31.04,20.91,48.84,26.58c17.69,5.63,36.03,7.89,55.16,9.85c-17.52,18.53-35.36,35.04-54.73,49.89
		c-19.69,15.1-41.57,26.53-64.78,38.49c2.6-0.17,3.8-0.04,4.87-0.35c40.26-11.61,80.01-24.29,115.28-48.06
		c14.93-10.06,28.91-21.06,41.57-33.8c14.55-14.65,27.82-30.4,40.23-46.89c0.21-0.18,0.42-0.37,0.63-0.55
		c-0.14-0.05-0.4-0.17-0.41-0.15c-0.11,0.21-0.19,0.43-0.27,0.65c-10.46,0.86-20.46,4.01-30.58,6.43
		c-25.85,6.18-51.79,11.01-78.53,7.57c-5-0.64-10.13-0.6-14.97-2.35c35.82-3.74,71.1-8.52,103.13-27.08
		c9.16-5.31,18.47-10.32,26.86-16.72c61.57-46.98,103.91-107.47,126.83-181.49c0.33-1.06,0.94-2.18,0.23-3.35
		c0.24-0.03,0.49-0.06,0.73-0.09c-0.09-0.2-0.18-0.4-0.27-0.6C799.19,342.53,799.06,342.8,798.93,343.06z M638.89,306.97l0.23,0.25
		c-0.14,1.47-1.34,2.27-2.19,3.24c-17.32,19.67-36.47,37.63-53.39,57.69c-16.01,18.98-24.73,41.54-32.78,64.74
		c1.67-0.97,2.53-2.68,3.81-3.95c13.5-13.46,26.75-27.18,43.19-37.28c14.35-8.81,28.69-17.56,44.34-24.01
		c7.16-2.95,14.15-6.49,21.31-9.31c7.83-3.09,15.79-5.98,23.72-8.88c9.07-3.33,18.22-6.45,28.1-9.92
		c-58.11,73.2-129.85,126.14-216.87,158.27c37.37-1.95,74.38-3.89,109.18-20.18c14.81-6.93,29.77-13.58,43.26-22.6
		c33.18-22.19,62-49.29,85.61-81.59c30.54-41.78,48.58-88.62,55.28-139.87c1.26-9.64,2.21-19.31,3.31-28.97
		c-14.94,23.04-29.62,45.89-49.6,64.86c-19.91,18.9-43,32.83-68.13,46.38c6.35-9.7,11.69-18.26,17.42-26.55
		c11.39-16.47,21.19-33.77,27.16-52.95c11.67-37.52,10.4-75.35,0.84-112.92c-14.67-57.62-49.19-98.34-105-120.26
		c-1.37-0.54-2.66-1.5-4.51-0.71c11.71,11.87,23.71,23.39,33.52,36.82c27.43,37.56,38.23,79.11,28.32,125.02
		c-8.75,40.51-30.18,73.88-59.8,102.3c-15.42,14.79-32.7,27.33-49.3,40.7c-15.56,12.53-30.93,25.27-43.68,40.78
		c-15.07,18.32-24.18,39.67-31.22,62.05c-0.62,1.96-1.34,3.95-0.55,6.8c4.13-4.41,7.88-8.37,11.58-12.37
		c8.69-9.41,16.09-19.92,25.59-28.67c16.67-15.34,36.25-26.49,55.26-38.28c16.16-10.02,33.38-18.39,49.72-28.24
		C634.47,308.21,636.41,306.69,638.89,306.97z M161.62,307.2c1.95-0.62,3.19,0.8,4.57,1.56c28.34,15.44,56.45,31.28,83.47,48.98
		c9.58,6.28,18.72,13.26,26.95,21.06c9.02,8.54,16.36,18.76,22.88,29.46c1.22,2,2.74,5.62,5.07,4.64c2.62-1.1,1.32-4.77,0.86-7.31
		c-3.76-20.67-11.91-39.41-25.06-55.84c-10.13-12.66-22.17-23.39-34.52-33.82c-18.97-16.03-39.55-30.08-57.71-47.1
		c-32.53-30.49-55.46-66.58-63.62-110.94c-4.12-22.39-3.32-44.57,3.47-66.71c9.14-29.8,25.72-54.6,47.51-76.34
		c3.9-3.89,7.67-7.91,12.52-12.92c-2.2,0.51-2.84,0.58-3.42,0.81c-45.76,17.8-79.04,48.57-97.5,94.46
		c-12.45,30.94-18.08,62.86-13.13,96.28c5.21,35.17,18.98,66.71,39.29,95.63c4.71,6.71,9.23,13.56,14.07,20.69
		c-0.99,0-1.37,0.11-1.6-0.02c-23.15-12.84-46.31-25.66-67.85-41.16c-18.13-13.06-30.66-30.81-42-49.6
		c-2.93-4.84-6.01-9.59-9.02-14.38c1.08,15.26,2.45,30.21,5.01,44.94c8.16,46.94,27.18,89.33,55.3,127.62
		c16.29,22.19,35.26,41.82,56.35,59.69c19.46,16.48,40.32,30.41,63.06,41.66c28.1,13.89,58.32,19.21,89.23,21.28
		c14.66,0.98,29.37,1.3,44.05,1.92c-44.91-17.4-89.59-34.65-129.36-62.36c-39.81-27.74-73.26-62.1-104.72-98.79
		c1.99-1.27,3.47,0.01,4.89,0.54c22.17,8.25,44.48,16.09,66.15,25.66c31.35,13.85,60.3,31.15,83.82,56.54
		c3.08,3.33,5.93,6.89,8.88,10.34c0.47-0.44,0.93-0.89,1.4-1.33c-8.92-24.55-19.09-48.36-36.73-68.31
		c-15.35-17.36-32.04-33.44-47.57-50.62C164.83,311.43,162.1,310.27,161.62,307.2z M307.97,617.16
		c18.09-3.32,34.85-7.59,48.12-19.84c30.12-27.8,46.21-61.18,41.05-103.2c-1.56-12.72-3.97-25.12-7.62-37.38
		c-7.17-24.07-16.41-47.5-21.92-72.08c-2.46-10.96-4.78-22.11-4.24-33.21c0.49-10.04,1.59-20.15,2.63-30.21
		c1.89-18.19,5.5-35.83,14.04-52.22c12.25-23.51,28.72-43.06,53.29-54.15c28.31-12.78,55.84-12.78,81.13,7.9
		c0.93,0.76,1.77,1.89,3.53,1.85c-0.23-0.73-0.38-1.34-0.61-1.92c-7.59-19.59-23.04-27.46-42.89-28.55
		c-2.75-0.15-4.41-0.68-5.8-3.35c-3.02-5.78-8.19-9.08-14.47-10.56c-8.18-1.93-16.47-2.26-24.82-1.52
		c-13.08,1.16-26.07,3.32-39.31,2.75c-6.76-0.29-12.22-2.84-16.93-7.39c-1.17-1.14-2-2.63-2.99-3.96
		c1.22,14.1,9.68,22.89,22.61,24.92c10.93,1.72,21.85,1.8,32.82,0.12c5.25-0.8,10.4-2.35,15.78-2.33c3.47,0.01,5.54,2.25,5.66,5.16
		c0.15,3.29-3.16,2.22-5.04,2.32c-13.01,0.69-26.01-1.24-39.11,2.02c-7.56,1.88-14.61,4.29-20.4,8.92
		c-16.3,13.05-27.69,30.06-36.32,48.88c-13.01,28.38-18.03,58.7-21.15,89.46c-0.67,6.63,0.76,12.44,4.1,18.09
		c4.65,7.84,8.87,16,11.73,24.63c10.94,32.96,23.04,65.58,29.22,99.96c4.22,23.49,3.52,46.38-7.37,68.11
		c-8.2,16.36-20.47,29.49-34.39,41.1C322.01,606.78,315.27,611.57,307.97,617.16z M451.4,587.83c2.47,0.55,2.64-1.65,3.39-2.87
		c6.26-10.24,11.84-20.83,16.21-32.03c12.15-31.08,14.6-62.36,1.76-93.89c-6.62-16.27-16.14-30.9-26.01-45.3
		c-8.94-13.04-18.47-25.7-25.96-39.69c-9.74-18.18-15.32-37.29-12.51-58.18c2.47-18.34,8.03-35.58,18.58-50.96
		c14.18-20.66,32.72-34.67,58.16-38.5c11.14-1.68,21.86,0.32,33.08,2.57c-20.64-12.98-42.15-14.46-63.99-6.04
		c-21.36,8.24-38.21,21.81-48.9,43.02c-8.79,17.46-16.94,34.77-19.53,54.43c-4.19,31.67,1.84,61.17,16.76,89.23
		c11.62,21.86,26.42,41.56,40.67,61.66c14.25,20.1,21.24,42.51,20.61,67.07C463.27,555.63,457.34,571.73,451.4,587.83z
		 M665.76,837.09c-0.17-1.2-1.09-1.2-1.89-1.2c-12.83-0.02-25.65-0.02-38.48,0c-0.93,0-2.32-0.25-2.41,1.06
		c-0.12,1.73,1.58,1.45,2.58,1.55c6.87,0.65,11.79,4.27,15.28,9.99c8.3,13.63,16.52,27.31,24.83,40.93
		c0.97,1.58,1.23,2.75,0.03,4.43c-9.75,13.7-19.45,27.44-29.04,41.25c-4.76,6.85-11.29,8.8-19.19,7.76c-3.4-0.45-5.4-1.89-5.92-5.53
		c-0.72-4.98-0.64-9.97-0.65-14.95c-0.02-19.66-0.02-39.32,0.18-58.97c0.07-6.86,0.89-7.47,7.66-8.61c1.06-0.18,2.42,0.04,2.44-2.01
		c-12.86,0-25.68,0-38.79,0c0.95,2.36,2.49,1.97,3.72,2.06c5.13,0.36,7.35,3.18,7.32,8.18c-0.16,24.16-0.29,48.31-0.44,72.47
		c-0.03,4.64-1.7,7.75-7,7.61c-1.19-0.03-3.22-0.29-2.95,1.6c0.22,1.58,2.17,1.11,3.44,1.11c7.99,0,15.99-0.07,23.99-0.07
		c13.82,0.01,27.65,0.08,41.47,0.05c1.35,0,3.54,0.78,3.76-1.23c0.19-1.68-1.85-1.48-3.12-1.57c-4.36-0.29-5.29-2.97-3.41-6.15
		c7.21-12.25,14.73-24.32,22.71-37.41c7.91,13.79,15.26,26.59,22.58,39.41c0.59,1.04,1.02,2.28,0.02,3.24
		c-4.05,3.88,0.36,3.33,1.96,3.37c10.49,0.25,20.99,0.28,31.48,0.36c1.11,0.01,2.35,0,2.59-1.49c-0.11-0.23-0.14-0.45-0.26-0.52
		c-0.43-0.24-0.88-0.61-1.33-0.62c-8.08-0.17-13.01-4.8-16.96-11.34c-8.95-14.82-18.07-29.54-27.33-44.16
		c-1.51-2.39-0.87-3.76,0.46-5.66c7.56-10.77,15.11-21.53,22.49-32.42c4.02-5.94,8.08-11.56,16.28-11.5c0.34,0,0.68-0.59,1.37-1.24
		c-0.52-0.32-0.92-0.77-1.33-0.77c-10.32-0.09-20.64-0.14-30.96-0.17c-0.79,0-1.92-0.02-1.92,1.06c0,1.76,1.6,1.29,2.62,1.49
		c6.07,1.19,7.26,3.04,4.1,8.29c-6.15,10.21-12.75,20.14-19.45,30.66c-6.63-10.16-12.02-20.23-17.63-30.15
		c-3.35-5.94-4.14-8.35,3.77-9.03C665.11,838.14,665.69,837.82,665.76,837.09z M238.56,852.74c0.61,0.96,0.74,1.41,0.96,1.47
		c1.11,0.27,2.25,0.49,3.39,0.61c6.8,0.69,8.36,2.2,8.55,9.03c0.22,8.16,0.14,16.33,0.4,24.48c0.09,2.91-0.61,4.2-3.82,4.17
		c-14.16-0.13-28.32-0.1-42.48,0.01c-2.91,0.02-3.66-1.1-3.6-3.83c0.17-8.33,0-16.66,0.17-24.99c0.14-7.05,0.98-7.85,7.89-8.92
		c1.07-0.17,2.4,0.03,2.7-2.09c-13.63,0-27.17,0-40.97,0c0.96,2.53,2.66,1.98,4.06,2.12c7.14,0.71,8.5,2.12,8.7,9.36
		c0.1,3.5,0.06,7,0.03,10.5c-0.13,19.82-0.19,39.65-0.47,59.47c-0.1,7.27-0.84,7.83-7.73,8.94c-1.02,0.16-1.99,0.3-2.46,2.11
		c14.13,0,28.09,0,42.35,0c-1.08-2.46-2.74-2.02-4.16-2.13c-8.22-0.66-9.53-1.79-9.76-9.9c-0.28-9.82-0.13-19.66-0.33-29.48
		c-0.06-2.76,0.75-3.71,3.63-3.69c14.16,0.14,28.32,0.13,42.48,0.01c2.76-0.02,3.83,0.69,3.8,3.61
		c-0.09,10.83-0.15,21.66-0.86,32.47c-0.28,4.19-1.78,7.06-6.59,6.98c-1.25-0.02-3.33-0.25-3.31,1.34c0.03,2.11,2.24,1.39,3.57,1.4
		c11.49,0.06,22.99,0.06,34.48,0c1.31-0.01,3.54,0.79,3.56-1.39c0.02-1.59-2.04-1.23-3.31-1.34c-9.03-0.83-10.09-1.76-10.2-10.99
		c-0.2-16.66-0.18-33.32-0.21-49.98c-0.01-6.33-0.04-12.66,0.15-18.99c0.19-6.39,1.22-7.38,7.47-8.29c1.17-0.17,2.75,0.22,3.03-2.06
		C266.02,852.74,252.5,852.74,238.56,852.74z M340.42,850.71c-1.5,0-2.99-0.03-4.49,0.01c-1.33,0.03-2.67,0.08-3.99,0.24
		c-20.11,2.42-35.32,11.86-42.31,31.48c-6.73,18.86-3.1,36.28,10.91,50.67c21.18,21.76,64.67,18.34,82.71-6.06
		c17.57-23.78,10.65-58.08-14.29-70.51C359.99,852.05,350.36,850.49,340.42,850.71z M464.9,944.81c5.84,1.85,33.5,1.3,36.14-0.77
		c-0.69-0.32-1.26-0.82-1.82-0.81c-8.64,0.17-10.42-1.24-11.04-12.72c-0.61-11.31-0.81-22.64-1.08-33.96
		c-0.14-5.72-0.02-11.45-0.02-17.18c0.39-0.34,0.77-0.67,1.16-1.01c0.66,1.13,1.14,2.43,2,3.38c17.18,18.86,35.81,36.26,54.27,53.83
		c3.62,3.44,7.29,6.83,11.02,10.16c1.25,1.11,2.84,2.04,4.56,1.19c1.56-0.77,1.45-2.51,1.49-3.98c0.14-4.83,0.22-9.66,0.31-14.49
		c0.39-21.32,0.74-42.64,1.18-63.96c0.15-7.39,1.17-8.47,8.31-9.78c0.94-0.17,1.98-0.27,1.96-1.63c-4.76-1.69-31.69-1.23-34.23,0.59
		c0.43,0.89,1.29,1.1,2.1,1.04c9.43-0.74,10.49,3.96,10.65,11.75c0.34,16.65,0.77,33.31,1.09,49.96c0.03,1.36,0.69,2.9-0.65,4.3
		c-0.79-0.72-1.53-1.35-2.21-2.04c-21.17-21.24-42.31-42.49-63.52-63.69c-2.02-2.02-3.95-5.71-7.06-4.44
		c-2.91,1.19-1.57,5.08-1.63,7.8c-0.59,25.81-1.09,51.62-1.6,77.44c-0.09,4.78-2.02,7.58-7.26,7.27
		C467.61,942.97,465.95,942.77,464.9,944.81z M135.54,945.21c-1.68-2.51-3.32-2.07-4.74-2.17c-9.72-0.67-10.76-1.12-11.2-10.68
		c-1.31-28.78-0.35-57.6-0.65-86.4c-0.03-2.93,1.72-3.66,4.12-3.84c6.06-0.46,11.66,0.91,16.29,4.91
		c9.22,7.97,11.17,18.41,8.35,29.55c-2.48,9.8-8.82,16.26-19.61,17.07c-1.1,0.08-2.74,0.02-2.6,1.6c0.12,1.31,1.66,1.44,2.8,1.46
		c4.86,0.07,9.64-0.52,14.28-1.99c15.13-4.81,25.41-20.84,23.2-36.11c-2.03-14.1-12.99-22.36-30.64-22.63
		c-14.98-0.23-29.97-0.09-44.95-0.04c-1.26,0-3.09-0.82-3.63,1.31c0.49,0.98,1.34,1.08,2.16,1.09c10.47,0.17,12.16,2.02,12.2,14.08
		c0.07,18.48,0.05,36.97,0.04,55.45c-0.01,8.99,0.13,17.98-0.86,26.94c-0.73,6.59-1.67,7.6-8.1,8.26c-1.25,0.13-2.75-0.2-3.47,2.15
		C104.1,945.21,119.46,945.21,135.54,945.21z M197.7,234.68c-40.5-63.98-42.08-129.08-6.34-195.23
		c-23.69,16.7-48.08,53.4-46.79,97.15C145.8,177.8,164.07,210.55,197.7,234.68z M396.98,944.81c1.25,1.42,2.99,1.01,4.56,1
		c3.49-0.01,6.99-0.24,10.48-0.2c14.15,0.15,28.29,0.4,42.44,0.54c2.08,0.02,4.8,0.64,5.74-1.89c2.14-5.76,2.5-11.75,1.89-18.07
		c-2.5,0.8-2.53,2.52-2.77,3.87c-0.91,5.21-4.13,7.72-9.16,8.33c-5.64,0.69-11.29,0.92-16.9-0.14c-5.77-1.08-7.91-3.25-8.06-8.98
		c-0.23-8.98-0.04-17.98-0.13-26.96c-0.03-2.35,0.77-3.31,3.18-3.17c4.49,0.26,8.98,0.42,13.47,0.47c6.04,0.07,11.68,0.51,11.5,8.74
		c-0.02,0.68,0.39,1.44,1.14,1.33c0.5-0.08,1.26-0.74,1.3-1.19c0.59-6.47,1.08-12.95,1.59-19.43c-3.02,1.36-5.22,2.77-8,2.8
		c-6.99,0.07-13.98,0.09-20.97,0.32c-2.83,0.1-3.26-1.21-3.23-3.62c0.1-8.49,0.15-16.98-0.02-25.47c-0.06-2.97,1.11-3.75,3.81-3.61
		c4.49,0.23,8.99,0.17,13.48,0.38c9.08,0.43,11.66,0.27,13.29,10.16c0.03,0.19,0.54,0.3,1.27,0.67c1.89-5.99,1.61-12.17,2.37-18.17
		c0.23-1.84-1.45-1.09-2.56-0.86c-4.1,0.82-8.27,0.85-12.43,0.82c-15.15-0.12-30.29-0.28-45.44-0.37c-1.33-0.01-3.52-0.57-3.48,1.48
		c0.03,1.57,2.12,1.09,3.37,1.21c7.53,0.77,9.03,2.36,9.06,10.13c0.04,12.15,0,24.31-0.05,36.46c-0.05,11.48,0.34,22.97-0.58,34.44
		c-0.35,4.39-1.79,7.41-6.86,7.25C399.02,943.03,397.51,942.88,396.98,944.81z M439.04,730.87c-0.6-2.44-1.13-4.66-1.68-6.88
		c-4.07-16.42-6.35-32.85-3.77-49.92c3.14-20.8,10.75-40.1,17.95-59.6c1.24-3.37,2.52-6.72,3.85-10.26
		c-1.83-0.15-2.35,0.78-2.95,1.52c-6.94,8.53-13.76,17.14-19.87,26.3c-12.72,19.06-19.93,39.71-19.12,62.93
		C414.06,712.23,422.57,724.66,439.04,730.87z M315.33,215.57c7.03,2.52,14.23,4.53,21.64,5.44c5.13,0.63,10.72,0.99,15.14-1.88
		c9.79-6.37,19.66-12.48,31.88-16.73c-11.87-2.14-22.2-1.88-32.22,2.34C340.08,209.66,328.08,213.55,315.33,215.57z M369.86,196.52
		c-7.88-4.18-15.02-9.2-21.24-15.49c-6.15-6.23-10.61-13.67-15.15-22.34c-2.72,16.21,1.59,28.44,13.86,37.68
		c1.83,1.38,3.7,2.13,6.01,1.55C358.72,196.56,364.21,196.61,369.86,196.52z"/>
	<path class="st1" d="M568.96,999.9c2.31-2.11,3.19-4.6,3-7.83c-0.31-5.15-0.07-10.32-0.09-15.49c-0.01-1.96,0.35-4.02-2.6-5.7
		c5.31,0,9.47-0.11,13.62,0.04c3.17,0.11,5.85,1.34,7.19,4.5c1.39,3.28,0.05,6.08-2.32,8.04c-2.84,2.34-1.91,3.92,0.13,5.95
		c2.47,2.46,4.64,5.22,7.17,7.62c1.49,1.41,3.59,1.96,5.6,1.16c2.26-0.9,1.5-3.11,1.53-4.81c0.09-5.83,0.05-11.66,0.03-17.49
		c0-1.96,0.22-4.1-2.59-5.09c5.51,0,11.02-0.08,16.52,0.03c3.43,0.07,1.15,2.67,2.22,5c-3.56-2.76-7.3-4.1-9.89-2.11
		c-1.87,1.44-1.57,5.95-0.3,7.98c1.98,3.15,5.99,0.52,9.39,1.2c-0.17,1.4-0.34,2.83-0.55,4.58c-2.79-2.57-6.78-3.76-8.56-1.25
		c-1.72,2.42-1.62,6.84,0.33,9.95c1.29,2.05,7.39,0.9,10.18-1.71c0,1.93,0,3.69,0,5.46c-9,0-18,0-26.99,0
		c-4.03-2.72-6.85-6.55-9.46-10.51c-1.15-1.75-2.69-1.86-4.33-1.49c-1.91,0.43-0.94,2.16-1.14,3.33c-0.5,2.97,0.8,5.77,0.93,8.68
		C574.96,999.9,571.96,999.9,568.96,999.9z M576.75,978.94c1.37,2.22-2.11,6.6,3.32,6.71c4.18,0.09,5.31-2.8,5.23-6.26
		c-0.08-3.68-1.6-6.63-5.8-6.48C574.73,973.08,578.12,977.05,576.75,978.94z"/>
	<path class="st1" d="M505.98,999.9c2.37-2.16,2.92-4.9,2.85-7.99c-0.12-5.33-0.05-10.66,0-15.99c0.02-2.12,0.02-4.13-2.73-4.86
		c3.33,0,6.65,0,9.9,0c-1.75,2.16-2.81,10.26-1.42,11.49c0.59,0.52,13.16,0.6,13.81,0.08c1.36-1.09,0.74-8.94-1.01-11.67
		c3.23,0,6.36,0,9.5,0c-2.56,0.99-2.17,3.2-2.18,5.21c-0.02,5.16,0.23,10.34-0.08,15.48c-0.23,3.84,0.78,6.62,4.37,8.24
		c-4.33,0-8.66,0-13,0c4.87-3.3,4.08-8.81,2.63-12.5c-1.63-4.14-7-1.05-10.67-1.68c-1.34-0.23-3.53-0.96-3.87,1.71
		c-0.02,0.16-0.03,0.33-0.03,0.5c0.12,4.39-1.1,9.21,3.94,11.98C513.97,999.9,509.97,999.9,505.98,999.9z"/>
	<path class="st1" d="M295.02,999.9c3.2-1.73,3.7-4.6,3.66-7.93c-0.06-6.16,0.13-12.32,0.27-18.48c0.02-0.94-0.01-2.37,0.53-2.72
		c1.26-0.83,2,0.57,2.8,1.35c6.29,6.17,12.57,12.34,19.71,19.34c-0.74-7.39,0.73-14.15-2.08-20.49c1.6,0,4.23,0,5.6,0
		c-0.81,9.61-0.98,19.25-0.49,28.93c-1,0-2,0-3,0c-5.61-7.49-13.23-12.93-19.99-20.65c0,4.65,0.23,8.12-0.06,11.54
		c-0.34,3.91,0.57,7.02,4.06,9.11C302.36,999.9,298.69,999.9,295.02,999.9z"/>
	<path class="st1" d="M417,999.9c-4.3-2.45-8.48-4.95-10.05-10.17c-2.3-7.68,1.29-15.39,8.68-18.28c8.52-3.34,18.41-0.35,21.73,6.57
		c3.55,7.4,0.45,16.12-7.16,20.26c-0.79,0.43-2.02,0.34-2.21,1.62C424.33,999.9,420.66,999.9,417,999.9z M432.8,986.19
		c0.14-7.86-4.27-13.44-10.79-13.67c-6.17-0.21-9.77,3.84-9.88,11.13c-0.12,8.11,4.85,14.1,11.66,14.08
		C429.32,997.71,432.67,993.42,432.8,986.19z"/>
	<path class="st1" d="M383,999.9c-0.39-1.45-1.86-1.18-2.81-1.63c-6.4-3.04-9.12-7.7-8.47-14.81c0.58-6.31,4.66-10.92,11.02-12.57
		c4.8-1.25,9.6-0.82,14.34,0.12c4.71,0.94,1.07,4.6,1.92,7.01c-1.56-2.6-3.58-4.49-6.51-5.02c-4.7-0.86-9.56-1.34-12.77,3.1
		c-3.44,4.76-3.08,10.07-0.45,15.09c2.49,4.75,6.85,6.51,12.02,6.54c1,0,1.98-0.07,2.6-1.09c1.27-2.1-0.04-9.34-2.23-11.47
		c3.41,0,6.67,0,10.47,0c-3.21,2.21-2.45,5.28-2.19,8.01c0.33,3.4-0.88,5.5-3.95,6.71C391.67,999.9,387.34,999.9,383,999.9z"/>
	<path class="st1" d="M229.04,999.9c-0.22-1.57-1.75-1.27-2.66-1.73c-6.39-3.23-9.18-8.12-8.35-14.95
		c0.75-6.14,5.08-10.78,11.39-12.4c4.83-1.23,9.66-0.77,14.36,0.25c4.46,0.97,1.02,4.53,1.77,6.93c-1.72-2.37-3.5-4.49-6.45-4.99
		c-4.69-0.79-9.36-1.31-12.87,2.97c-2.88,3.51-3.14,10.6-0.56,15.17c2.65,4.69,6.93,6.46,12.09,6.57c2.02,0.04,3.34-0.82,3.05-2.94
		c-0.44-3.17,1.9-7.14-3.19-9.52c3.89,0,7.07,0,10.56,0c-2.77,2.32-2.21,5.48-1.88,8.39c0.34,3.02-0.61,4.98-3.27,6.23
		C238.37,999.9,233.71,999.9,229.04,999.9z"/>
	<path class="st1" d="M186.05,999.9c6.2-5.48,7.32-13.67,10.91-20.54c1.59-3.05,2.32-6.53,5.02-9.99
		c3.24,7.39,6.35,14.27,9.26,21.24c1.54,3.68,3.29,7.1,6.8,9.29c-3.33,0-6.67,0-10,0c0.58-2.25-0.36-4.21-1.11-6.23
		c-0.75-2-1.16-4.43-4.17-3.77c-2.55,0.56-5.91-1.71-7.57,1.73c-1.25,2.6-3.4,5.47-0.14,8.27
		C192.05,999.9,189.05,999.9,186.05,999.9z M200.48,978.15c-1.22,3.29-3.64,6.17-2.94,9.02c0.39,1.6,4.06,0.45,6.5,0.53
		C203.36,984.31,202.13,981.39,200.48,978.15z"/>
	<path class="st1" d="M543.97,999.9c2.38-1.8,3.33-4.08,3.2-7.17c-0.24-5.48-0.06-10.98-0.04-16.47c0.01-1.89,0.18-3.82-2.45-5.43
		c5.28,0,9.61,0.26,13.9-0.08c3.81-0.3,5.35,0.72,3.85,4.93c-2.45-2.98-6.29-3.73-8.83-2.15c-2.05,1.28-1.6,5.82-0.46,7.92
		c1.85,3.41,5.79,0.88,9.16,1.21c-0.14,1.55-0.27,3.11-0.47,5.38c-2.33-3.56-5.92-3.85-7.91-2.32c-2.57,1.97-1.26,5.87-0.93,8.88
		c0.38,3.45,3.45,2.32,5.59,2.43c2.1,0.11,5.52-2.08,4.4,2.88C556.63,999.9,550.3,999.9,543.97,999.9z"/>
	<path class="st1" d="M334.02,999.9c2.28-2.14,3.07-4.72,2.94-7.88c-0.21-5.14-0.04-10.29-0.04-15.43c0-1.97,0.31-4.03-2.83-5.77
		c5.83,0,10.32,0.28,14.76-0.08c4.26-0.34,4.38,1.47,3,4.84c-1.95-3.03-5.06-2.98-7.7-2.38c-3.54,0.8-1.26,4.11-1.72,6.25
		c-0.32,1.5-0.54,3.52,2.12,3.49c1.16-0.01,2.4,0.29,3.47-0.02c4.56-1.3,4.24,1.32,3.55,4.64c-2.78-2.17-6.56-4.31-8.69-1.14
		c-1.64,2.45-1.72,6.87,0.51,9.92c1.4,1.92,7.36,0.56,9.81-2.02c1.2,1.98-0.72,3.78-0.19,5.59
		C346.68,999.9,340.35,999.9,334.02,999.9z"/>
	<path class="st1" d="M442.99,999.9c2.24-2.12,3.18-4.56,2.98-7.8c-0.33-5.12-0.12-10.29-0.06-15.43c0.02-2.01,0.01-3.94-2.25-5.86
		c5.18,0,9.61,0,14.04,0c4.01-0.01,4.01-0.01,3.19,4.48c-2.16-2.77-5.36-2.74-7.97-2.08c-3.27,0.83-1.25,4.16-1.64,6.35
		c-0.28,1.58-0.42,3.51,2.23,3.39c1.16-0.05,2.36,0.2,3.48-0.04c3.72-0.77,4.79,0.67,3.55,4.47c-2.73-2.37-6.66-3.89-8.7-1.04
		c-1.73,2.42-1.65,6.85,0.51,9.87c1.49,2.08,7.5,0.66,10.08-2.04c0.96,2.01-0.73,3.79-0.45,5.71
		C455.65,999.9,449.32,999.9,442.99,999.9z"/>
	<path class="st1" d="M469.98,999.9c-1.89-2.26-1.6-4.76-0.59-8.56c0.87,4.11,2.72,6.11,5.92,6.48c2.51,0.28,4.67-0.32,5.77-2.85
		c1.09-2.51,0.24-4.59-1.84-6.12c-2.27-1.66-4.88-2.9-6.96-4.75c-3.49-3.09-3.79-7.53-1.11-10.66c2.61-3.05,10.92-4.7,13.43-2.5
		c1.77,1.56,0.4,3.55,0.14,5.44c-0.87-1.08-1.53-2.48-2.64-3.17c-2.71-1.67-5.64-1.52-7.55,1.14c-1.95,2.7,0.01,4.65,2.22,6.12
		c1.52,1.01,3.25,1.7,4.73,2.76c6.17,4.42,6.35,10.4,0.55,15.22c-0.45,0.37-0.72,0.97-1.07,1.46
		C477.32,999.9,473.65,999.9,469.98,999.9z"/>
	<path class="st1" d="M171.05,999.9c2.35-2.1,3.18-4.66,3.01-7.84c-0.24-4.31-0.01-8.65,0-12.98c0.01-5.87-2.24-7.44-7.84-5.42
		c-0.98,0.36-1.82,1.13-3.06,1.92c-0.16-3.47,0.26-5.28,4.48-4.92c5.95,0.51,11.98,0.35,17.96,0.03c3.67-0.19,4.92,0.98,3.95,4.78
		c-1.04-0.63-1.97-1.44-3.04-1.81c-5.33-1.86-7.28-0.48-7.28,5.02c0,4.16,0.16,8.33,0,12.48c-0.13,3.6,0.37,6.77,3.83,8.73
		C179.05,999.9,175.05,999.9,171.05,999.9z"/>
	<path class="st1" d="M254.03,999.9c2.38-2.05,3.2-4.56,3.04-7.74c-0.26-5.46-0.12-10.94-0.09-16.42c0.01-2.11-0.21-3.99-3.02-4.41
		c8.51-0.95,8.48-0.95,8.33,6.66c-0.09,4.31-0.18,8.63,0.02,12.94c0.1,2.12-0.77,5.27,2.34,5.79c2.89,0.49,6.3,1.66,8.69-1.59
		c0.28-0.39,0.73-0.65,1.15-1.01c0.88,2.06-0.75,3.85-0.47,5.79C267.36,999.9,260.7,999.9,254.03,999.9z"/>
	<path class="st0" d="M306.02,999.9c-3.49-2.09-4.4-5.2-4.06-9.11c0.3-3.42,0.06-6.89,0.06-11.54c6.76,7.72,14.38,13.17,19.99,20.65
		C316.69,999.9,311.35,999.9,306.02,999.9z"/>
	<path class="st1" d="M278.03,999.9c3.15-1.61,3.51-4.34,3.4-7.53c-0.19-5.32-0.05-10.66-0.07-15.99c-0.01-1.97,0.31-4.1-3.33-5.29
		c4.37,0,7.57,0,11.3,0c-2.15,1.17-2.48,2.9-2.43,4.96c0.13,5,0.26,10.01-0.03,14.99c-0.22,3.87,0.48,6.98,4.15,8.86
		C286.69,999.9,282.36,999.9,278.03,999.9z"/>
	<path class="st0" d="M517.97,999.9c-5.04-2.76-3.83-7.59-3.94-11.98c0-0.17,0.01-0.33,0.03-0.5c0.34-2.67,2.54-1.94,3.87-1.71
		c3.67,0.63,9.04-2.46,10.67,1.68c1.45,3.68,2.24,9.2-2.63,12.5C523.3,999.9,520.64,999.9,517.97,999.9z"/>
	<path class="st0" d="M195.05,999.9c-3.25-2.8-1.11-5.67,0.14-8.27c1.65-3.44,5.02-1.17,7.57-1.73c3.01-0.66,3.42,1.77,4.17,3.77
		c0.75,2.01,1.7,3.98,1.11,6.23C203.71,999.9,199.38,999.9,195.05,999.9z"/>
	<path class="st0" d="M577.96,999.9c-0.13-2.91-1.43-5.71-0.93-8.68c0.2-1.17-0.77-2.89,1.14-3.33c1.63-0.37,3.18-0.26,4.33,1.49
		c2.61,3.97,5.43,7.8,9.46,10.51C587.29,999.9,582.62,999.9,577.96,999.9z"/>
	<path class="st2" d="M161.62,307.2c0.49,3.07,3.21,4.23,4.99,6.2c15.53,17.18,32.22,33.26,47.57,50.62
		c17.64,19.96,27.81,43.77,36.73,68.31c-0.47,0.44-0.93,0.89-1.4,1.33c-2.95-3.45-5.8-7.01-8.88-10.34
		c-23.52-25.39-52.47-42.7-83.82-56.54c-21.66-9.57-43.98-17.41-66.15-25.66c-1.42-0.53-2.9-1.81-4.89-0.54
		c31.46,36.69,64.91,71.05,104.72,98.79c39.77,27.71,84.45,44.96,129.36,62.36c-14.69-0.62-29.39-0.94-44.05-1.92
		c-30.91-2.07-61.13-7.39-89.23-21.28c-22.75-11.25-43.61-25.17-63.06-41.66c-21.09-17.87-40.06-37.5-56.35-59.69
		c-28.12-38.29-47.14-80.68-55.3-127.62c-2.56-14.74-3.93-29.68-5.01-44.94c3.01,4.79,6.1,9.54,9.02,14.38
		c11.35,18.79,23.87,36.54,42,49.6c21.54,15.51,44.7,28.32,67.85,41.16c0.24,0.13,0.61,0.02,1.6,0.02
		c-4.84-7.13-9.36-13.98-14.07-20.69c-20.31-28.92-34.08-60.47-39.29-95.63c-4.95-33.42,0.68-65.34,13.13-96.28
		c18.46-45.89,51.75-76.66,97.5-94.46c0.58-0.23,1.23-0.3,3.42-0.81c-4.85,5.01-8.62,9.03-12.52,12.92
		c-21.8,21.74-38.37,46.53-47.51,76.34c-6.79,22.14-7.59,44.32-3.47,66.71c8.16,44.36,31.09,80.45,63.62,110.94
		c18.16,17.02,38.74,31.08,57.71,47.1c12.35,10.43,24.39,21.16,34.52,33.82c13.15,16.43,21.3,35.17,25.06,55.84
		c0.46,2.54,1.77,6.21-0.86,7.31c-2.33,0.98-3.86-2.65-5.07-4.64c-6.52-10.7-13.86-20.92-22.88-29.46
		c-8.23-7.8-17.36-14.78-26.95-21.06c-27.02-17.71-55.13-33.54-83.47-48.98C164.8,308,163.57,306.58,161.62,307.2z"/>
	<path class="st2" d="M638.89,306.97c-2.48-0.28-4.42,1.24-6.27,2.35c-16.34,9.85-33.56,18.22-49.72,28.24
		c-19.01,11.79-38.59,22.94-55.26,38.28c-9.5,8.75-16.9,19.26-25.59,28.67c-3.7,4-7.44,7.96-11.58,12.37
		c-0.79-2.85-0.07-4.84,0.55-6.8c7.04-22.38,16.15-43.73,31.22-62.05c12.75-15.51,28.12-28.25,43.68-40.78
		c16.6-13.37,33.89-25.91,49.3-40.7c29.63-28.42,51.06-61.79,59.8-102.3c9.91-45.91-0.89-87.46-28.32-125.02
		c-9.81-13.43-21.81-24.95-33.52-36.82c1.85-0.79,3.14,0.17,4.51,0.71c55.81,21.92,90.33,62.65,105,120.26
		c9.57,37.58,10.84,75.41-0.84,112.92c-5.97,19.19-15.77,36.48-27.16,52.95c-5.73,8.29-11.07,16.84-17.42,26.55
		c25.13-13.55,48.23-27.48,68.13-46.38c19.99-18.98,34.67-41.83,49.6-64.86c-1.1,9.66-2.05,19.34-3.31,28.97
		c-6.7,51.25-24.75,98.08-55.28,139.87c-23.61,32.31-52.43,59.4-85.61,81.59c-13.49,9.02-28.45,15.67-43.26,22.6
		c-34.8,16.29-71.82,18.23-109.18,20.18c87.02-32.13,158.75-85.06,216.87-158.27c-9.87,3.48-19.02,6.59-28.1,9.92
		c-7.93,2.91-15.89,5.8-23.72,8.88c-7.17,2.82-14.15,6.36-21.31,9.31c-15.65,6.45-29.99,15.2-44.34,24.01
		c-16.44,10.09-29.7,23.81-43.19,37.28c-1.28,1.28-2.14,2.98-3.81,3.95c8.05-23.21,16.77-45.77,32.78-64.74
		c16.92-20.06,36.07-38.02,53.39-57.69c0.85-0.96,2.05-1.76,2.18-3.24c0.52-0.15,0.96-0.32,0.34-0.9
		C639.27,306.53,639.08,306.75,638.89,306.97z"/>
	<path class="st1" d="M665.94,559.99c-12.4,16.49-25.68,32.24-40.23,46.89c-12.66,12.74-26.64,23.74-41.57,33.8
		c-35.27,23.78-75.02,36.46-115.28,48.06c-1.07,0.31-2.27,0.18-4.87,0.35c23.2-11.96,45.09-23.38,64.78-38.49
		c19.37-14.86,37.21-31.36,54.73-49.89c-19.13-1.96-37.46-4.22-55.16-9.85c-17.8-5.67-33.7-14.74-48.84-26.58
		c3.9-1.35,7.36-0.98,10.73-1.13c26.14-1.2,52.25-2.69,77.33-11.15c25.09-8.46,48.08-20.95,69.15-36.96
		c0.63-0.48,1.22-0.99,2.73-2.2c-12.04,0.02-22.82,1.6-33.62,2.66c-30.29,2.98-60.48,4.01-90.36-3.51c-1.55-0.39-3.1-0.82-4.61-1.56
		c12.92-0.56,25.77-1.25,38.54-2.91c35.42-4.61,68.37-16.8,100.06-32.78c15.17-7.65,29.6-16.59,44.06-25.5
		c7.59-4.68,15.24-9.67,21.86-15.15c20.41-16.89,39.94-34.96,56.07-56.27c7.94-10.49,16.1-20.8,24.22-31.16
		c0.99-1.27,1.58-2.96,3.28-3.6l-0.08-0.1c0.71,1.17,0.1,2.29-0.23,3.35c-22.92,74.02-65.26,134.51-126.83,181.49
		c-8.39,6.4-17.7,11.41-26.86,16.72c-32.02,18.56-67.3,23.34-103.13,27.08c4.83,1.75,9.97,1.71,14.97,2.35
		c26.75,3.44,52.69-1.39,78.53-7.57c10.13-2.42,20.12-5.58,30.58-6.43L665.94,559.99z"/>
	<path class="st1" d="M135.46,559.61c16.07,3.58,32.13,7.19,48.2,10.73c22.16,4.89,44.47,6.2,66.99,2.89
		c2.37-0.35,4.78-0.4,7.18-0.59c0.03-0.41,0.05-0.82,0.08-1.24c-6.41-0.78-12.81-1.65-19.24-2.32c-27.85-2.88-54.81-9.26-79.77-22.2
		c-16.87-8.74-32.15-20.02-46.48-32.53c-36.41-31.78-66.51-68.52-87.86-112.09c-9.44-19.27-16.66-39.42-22.7-60.15
		c3.42,4.46,6.89,8.88,10.25,13.39c10.94,14.7,22.12,29.26,34.5,42.7c22.47,24.39,48.81,44.19,77.23,61.19
		c35.8,21.41,73.47,38.25,114.73,46.09c15.42,2.93,31.02,4.06,46.68,4.47c1.75,0.05,3.51,0.01,5.26,0.29
		c-42.35,12.96-85.1,5.81-129.17,2.12c47.24,38.56,100.97,52.22,159.61,51.29c-16.29,13.23-33.51,23.92-52.91,30.78
		c-19.51,6.89-40.02,7.55-60.91,9.03c29.11,29.65,61.11,51.38,104.91,47.43c-26.54,6.52-52.8,12.24-79.7,3.17
		c-16.17-5.45-30.04-14.59-42.85-25.58c-22.54-19.33-38.73-43.72-54.51-68.43C135.15,559.9,135.31,559.76,135.46,559.61z"/>
	<path class="st1" d="M307.97,617.16c7.3-5.59,14.03-10.39,20.36-15.67c13.92-11.61,26.19-24.74,34.39-41.1
		c10.89-21.73,11.59-44.62,7.37-68.11c-6.18-34.38-18.28-67-29.22-99.96c-2.86-8.62-7.08-16.78-11.73-24.63
		c-3.34-5.64-4.78-11.46-4.1-18.09c3.12-30.77,8.14-61.08,21.15-89.46c8.63-18.82,20.02-35.82,36.32-48.88
		c5.79-4.64,12.84-7.04,20.4-8.92c13.1-3.26,26.09-1.33,39.11-2.02c1.87-0.1,5.18,0.96,5.04-2.32c-0.13-2.91-2.19-5.14-5.66-5.16
		c-5.38-0.02-10.53,1.53-15.78,2.33c-10.97,1.68-21.89,1.6-32.82-0.12c-12.93-2.03-21.39-10.82-22.61-24.92
		c0.99,1.33,1.82,2.82,2.99,3.96c4.7,4.55,10.16,7.1,16.93,7.39c13.23,0.58,26.22-1.58,39.31-2.75c8.35-0.74,16.64-0.41,24.82,1.52
		c6.29,1.48,11.45,4.78,14.47,10.56c1.39,2.66,3.04,3.19,5.8,3.35c19.85,1.09,35.3,8.96,42.89,28.55c0.22,0.58,0.38,1.19,0.61,1.92
		c-1.75,0.05-2.6-1.09-3.53-1.85c-25.29-20.69-52.82-20.68-81.13-7.9c-24.56,11.09-41.04,30.64-53.29,54.15
		c-8.54,16.39-12.15,34.02-14.04,52.22c-1.05,10.06-2.14,20.17-2.63,30.21c-0.54,11.09,1.78,22.24,4.24,33.21
		c5.51,24.58,14.75,48.01,21.92,72.08c3.66,12.26,6.06,24.66,7.62,37.38c5.17,42.03-10.93,75.4-41.05,103.2
		C342.82,609.57,326.07,613.85,307.97,617.16z"/>
	<path class="st2" d="M451.4,587.83c5.94-16.1,11.87-32.2,12.31-49.48c0.63-24.56-6.36-46.97-20.61-67.07
		c-14.24-20.1-29.04-39.8-40.67-61.66c-14.92-28.05-20.94-57.56-16.76-89.23c2.6-19.66,10.74-36.98,19.53-54.43
		c10.68-21.21,27.54-34.78,48.9-43.02c21.84-8.42,43.35-6.94,63.99,6.04c-11.22-2.25-21.94-4.24-33.08-2.57
		c-25.44,3.83-43.98,17.84-58.16,38.5c-10.55,15.38-16.12,32.62-18.58,50.96c-2.81,20.89,2.77,40,12.51,58.18
		c7.49,13.98,17.02,26.64,25.96,39.69c9.87,14.4,19.39,29.04,26.01,45.3c12.84,31.53,10.39,62.81-1.76,93.89
		c-4.38,11.2-9.95,21.79-16.21,32.03C454.04,586.19,453.87,588.38,451.4,587.83z"/>
	<path class="st2" d="M415.94,823c-8.9-0.11-16.99-2.97-24.49-7.5c-25.15-15.17-38.99-37.25-41.54-66.71
		c-2.17-25.11,3.02-48.95,10.73-72.5c2.58-7.87,5.39-15.67,8.63-25.04c-20.04,11.88-40.66,8.9-61.38,6.89
		c2.09-0.75,4.15-1.63,6.28-2.24c44.39-12.56,72.95-42.77,92.66-82.92c14.1-28.73,22.44-58.71,20.29-91.05
		c-0.07-1.08-0.01-2.16,0.23-3.25c8.06,27.39,12.8,55.1,7.38,83.61c-5.27,27.68-16,53.5-28.01,78.79
		c-9.58,20.18-18.51,40.56-24.06,62.29c-6.01,23.51-8.43,47,0.82,70.24c5.16,12.96,13.89,23.81,22.08,34.95
		c3.51,4.77,7.93,8.88,10.48,14.36L415.94,823z"/>
	<path class="st1" d="M665.76,837.09c-0.07,0.73-0.65,1.05-1.33,1.11c-7.91,0.69-7.12,3.1-3.77,9.03
		c5.61,9.93,10.99,19.99,17.63,30.15c6.71-10.51,13.31-20.45,19.45-30.66c3.16-5.25,1.97-7.1-4.1-8.29
		c-1.02-0.2-2.62,0.28-2.62-1.49c0-1.08,1.13-1.06,1.92-1.06c10.32,0.03,20.64,0.08,30.96,0.17c0.4,0,0.81,0.45,1.33,0.77
		c-0.7,0.65-1.04,1.25-1.37,1.24c-8.2-0.05-12.25,5.57-16.28,11.5c-7.38,10.89-14.93,21.66-22.49,32.42
		c-1.33,1.9-1.98,3.27-0.46,5.66c9.26,14.63,18.38,29.34,27.33,44.16c3.95,6.55,8.88,11.17,16.96,11.34
		c0.45,0.01,0.9,0.38,1.33,0.62c0.12,0.07,0.15,0.28,0.26,0.52c-0.24,1.49-1.48,1.5-2.59,1.49c-10.49-0.07-20.99-0.1-31.48-0.36
		c-1.6-0.04-6.01,0.51-1.96-3.37c1-0.96,0.58-2.2-0.02-3.24c-7.33-12.82-14.68-25.62-22.58-39.41
		c-7.98,13.09-15.5,25.16-22.71,37.41c-1.87,3.18-0.94,5.87,3.41,6.15c1.28,0.08,3.31-0.11,3.12,1.57
		c-0.22,2.01-2.42,1.22-3.76,1.23c-13.82,0.03-27.65-0.04-41.47-0.05c-7.99-0.01-15.99,0.07-23.99,0.07c-1.27,0-3.22,0.47-3.44-1.11
		c-0.27-1.89,1.76-1.63,2.95-1.6c5.31,0.13,6.97-2.98,7-7.61c0.15-24.16,0.27-48.31,0.44-72.47c0.03-5-2.19-7.82-7.32-8.18
		c-1.23-0.09-2.77,0.31-3.72-2.06c13.11,0,25.93,0,38.79,0c-0.02,2.05-1.39,1.83-2.44,2.01c-6.77,1.14-7.6,1.75-7.66,8.61
		c-0.2,19.66-0.2,39.32-0.18,58.97c0,4.98-0.07,9.97,0.65,14.95c0.52,3.64,2.52,5.09,5.92,5.53c7.9,1.04,14.43-0.9,19.19-7.76
		c9.59-13.81,19.3-27.54,29.04-41.25c1.2-1.68,0.93-2.85-0.03-4.43c-8.31-13.62-16.53-27.3-24.83-40.93
		c-3.49-5.72-8.4-9.34-15.28-9.99c-0.99-0.09-2.7,0.18-2.58-1.55c0.09-1.31,1.48-1.06,2.41-1.06c12.83-0.02,25.65-0.02,38.48,0
		C664.67,835.89,665.59,835.89,665.76,837.09z"/>
	<path class="st1" d="M238.56,852.74c13.94,0,27.46,0,41.09,0c-0.29,2.28-1.86,1.89-3.03,2.06c-6.24,0.91-7.27,1.9-7.47,8.29
		c-0.19,6.33-0.16,12.66-0.15,18.99c0.03,16.66,0.01,33.32,0.21,49.98c0.11,9.23,1.17,10.16,10.2,10.99
		c1.27,0.12,3.32-0.25,3.31,1.34c-0.02,2.18-2.25,1.38-3.56,1.39c-11.49,0.06-22.99,0.06-34.48,0c-1.32-0.01-3.53,0.71-3.57-1.4
		c-0.02-1.59,2.05-1.36,3.31-1.34c4.81,0.08,6.31-2.79,6.59-6.98c0.71-10.81,0.77-21.64,0.86-32.47c0.02-2.92-1.04-3.64-3.8-3.61
		c-14.16,0.12-28.32,0.12-42.48-0.01c-2.88-0.03-3.69,0.92-3.63,3.69c0.2,9.83,0.06,19.66,0.33,29.48c0.23,8.11,1.54,9.24,9.76,9.9
		c1.42,0.11,3.09-0.33,4.16,2.13c-14.26,0-28.23,0-42.35,0c0.48-1.81,1.44-1.94,2.46-2.11c6.89-1.11,7.62-1.67,7.73-8.94
		c0.28-19.82,0.34-39.65,0.47-59.47c0.02-3.5,0.06-7-0.03-10.5c-0.2-7.24-1.56-8.65-8.7-9.36c-1.39-0.14-3.1,0.41-4.06-2.12
		c13.8,0,27.34,0,40.97,0c-0.3,2.12-1.63,1.92-2.7,2.09c-6.91,1.07-7.75,1.87-7.89,8.92c-0.17,8.33,0,16.66-0.17,24.99
		c-0.05,2.73,0.7,3.85,3.6,3.83c14.16-0.11,28.32-0.13,42.48-0.01c3.21,0.03,3.91-1.26,3.82-4.17c-0.25-8.16-0.17-16.33-0.4-24.48
		c-0.19-6.83-1.74-8.34-8.55-9.03c-1.14-0.12-2.27-0.34-3.39-0.61C239.3,854.16,239.17,853.7,238.56,852.74z"/>
	<path class="st1" d="M340.42,850.71c9.95-0.22,19.57,1.34,28.54,5.81c24.94,12.43,31.86,46.73,14.29,70.51
		c-18.04,24.4-61.53,27.82-82.71,6.06c-14.01-14.39-17.63-31.8-10.91-50.67c7-19.62,22.2-29.06,42.31-31.48
		c1.32-0.16,2.66-0.2,3.99-0.24C337.42,850.68,338.92,850.71,340.42,850.71z M373.46,901.35c-0.51-13.46-2.93-26.6-14.77-36.47
		c-14.15-11.8-44.5-12.9-51.34,15.1c-2.74,11.19-2.44,22.48,1.1,33.51c2.38,7.42,6.37,13.86,12.4,18.96
		c19.91,16.82,46.09,7.89,51.39-17.51C373.13,910.66,373.15,906.35,373.46,901.35z"/>
	<path class="st1" d="M464.9,944.81c1.05-2.04,2.71-1.84,4.12-1.76c5.23,0.31,7.16-2.49,7.26-7.27c0.51-25.81,1.01-51.63,1.6-77.44
		c0.06-2.72-1.27-6.61,1.63-7.8c3.11-1.27,5.04,2.42,7.06,4.44c21.2,21.2,42.35,42.46,63.52,63.69c0.68,0.69,1.43,1.32,2.21,2.04
		c1.34-1.4,0.68-2.95,0.65-4.3c-0.32-16.65-0.75-33.31-1.09-49.96c-0.16-7.79-1.22-12.49-10.65-11.75c-0.81,0.06-1.67-0.15-2.1-1.04
		c2.54-1.81,29.47-2.28,34.23-0.59c0.02,1.35-1.02,1.45-1.96,1.63c-7.14,1.31-8.16,2.39-8.31,9.78
		c-0.44,21.32-0.79,42.64-1.18,63.96c-0.09,4.83-0.17,9.66-0.31,14.49c-0.04,1.47,0.07,3.21-1.49,3.98
		c-1.72,0.85-3.31-0.08-4.56-1.19c-3.73-3.32-7.4-6.71-11.02-10.16c-18.46-17.57-37.09-34.97-54.27-53.83
		c-0.86-0.95-1.34-2.24-2-3.38c-0.39,0.34-0.77,0.67-1.16,1.01c0,5.73-0.11,11.46,0.02,17.18c0.27,11.32,0.47,22.66,1.08,33.96
		c0.62,11.47,2.4,12.88,11.04,12.72c0.56-0.01,1.13,0.49,1.82,0.81C498.39,946.11,470.74,946.66,464.9,944.81z"/>
	<path class="st1" d="M135.54,945.21c-16.08,0-31.44,0-47,0c0.72-2.35,2.22-2.02,3.47-2.15c6.43-0.66,7.37-1.67,8.1-8.26
		c0.99-8.96,0.86-17.96,0.86-26.94c0.02-18.48,0.03-36.97-0.04-55.45c-0.04-12.06-1.73-13.92-12.2-14.08
		c-0.82-0.01-1.67-0.12-2.16-1.09c0.54-2.13,2.37-1.31,3.63-1.31c14.98-0.05,29.97-0.19,44.95,0.04
		c17.65,0.27,28.6,8.53,30.64,22.63c2.2,15.27-8.07,31.3-23.2,36.11c-4.63,1.47-9.42,2.06-14.28,1.99c-1.14-0.02-2.69-0.15-2.8-1.46
		c-0.14-1.57,1.5-1.51,2.6-1.6c10.8-0.81,17.13-7.27,19.61-17.07c2.83-11.14,0.87-21.59-8.35-29.55c-4.63-4-10.23-5.37-16.29-4.91
		c-2.4,0.18-4.15,0.91-4.12,3.84c0.29,28.8-0.67,57.62,0.65,86.4c0.44,9.57,1.48,10.01,11.2,10.68
		C132.22,943.14,133.86,942.7,135.54,945.21z"/>
	<path class="st1" d="M604.8,233.91c9.24-14.47,17.54-29.42,22.68-45.9c15.37-49.24,11.53-96.75-13.07-142.34
		c-0.94-1.75-2.04-3.42-3.15-5.28c2.38-0.84,3.54,1.15,4.85,2.35c14.68,13.4,25.76,29,33.29,47.73
		c10.61,26.39,11.63,52.72,3.33,79.45c-8.33,26.81-23.8,48.73-47.38,64.52C605.17,234.26,604.99,234.09,604.8,233.91z"/>
	<path class="st1" d="M197.7,234.68c-33.64-24.14-51.91-56.88-53.13-98.08c-1.3-43.75,23.1-80.45,46.79-97.15
		C155.62,105.61,157.2,170.7,197.7,234.68z"/>
	<path class="st1" d="M396.98,944.81c0.54-1.93,2.04-1.77,3.29-1.74c5.07,0.16,6.51-2.85,6.86-7.25
		c0.92-11.47,0.53-22.96,0.58-34.44c0.05-12.15,0.09-24.31,0.05-36.46c-0.03-7.77-1.53-9.35-9.06-10.13
		c-1.25-0.13-3.34,0.36-3.37-1.21c-0.04-2.04,2.15-1.48,3.48-1.48c15.15,0.09,30.29,0.24,45.44,0.37c4.16,0.03,8.33,0,12.43-0.82
		c1.11-0.22,2.8-0.97,2.56,0.86c-0.75,6-0.47,12.18-2.37,18.17c-0.72-0.37-1.24-0.48-1.27-0.67c-1.63-9.89-4.21-9.73-13.29-10.16
		c-4.49-0.21-8.99-0.15-13.48-0.38c-2.7-0.14-3.87,0.64-3.81,3.61c0.17,8.49,0.12,16.98,0.02,25.47c-0.03,2.4,0.41,3.71,3.23,3.62
		c6.98-0.24,13.98-0.25,20.97-0.32c2.78-0.03,4.97-1.44,8-2.8c-0.51,6.48-1,12.96-1.59,19.43c-0.04,0.45-0.8,1.12-1.3,1.19
		c-0.74,0.12-1.15-0.64-1.14-1.33c0.18-8.23-5.46-8.67-11.5-8.74c-4.49-0.05-8.99-0.21-13.47-0.47c-2.41-0.14-3.2,0.83-3.18,3.17
		c0.1,8.99-0.1,17.98,0.13,26.96c0.15,5.73,2.29,7.9,8.06,8.98c5.61,1.05,11.26,0.83,16.9,0.14c5.03-0.62,8.25-3.13,9.16-8.33
		c0.24-1.35,0.28-3.07,2.77-3.87c0.62,6.32,0.25,12.31-1.89,18.07c-0.94,2.53-3.66,1.91-5.74,1.89
		c-14.15-0.14-28.29-0.39-42.44-0.54c-3.49-0.04-6.99,0.19-10.48,0.2C399.97,945.82,398.22,946.23,396.98,944.81z"/>
	<path class="st1" d="M439.04,730.87c-16.47-6.2-24.99-18.64-25.59-35.91c-0.81-23.22,6.4-43.87,19.12-62.93
		c6.11-9.16,12.93-17.77,19.87-26.3c0.6-0.73,1.12-1.67,2.95-1.52c-1.33,3.55-2.61,6.9-3.85,10.26c-7.2,19.5-14.81,38.8-17.95,59.6
		c-2.58,17.07-0.3,33.49,3.77,49.92C437.91,726.2,438.45,728.42,439.04,730.87z"/>
	<path class="st1" d="M315.33,215.57c12.75-2.01,24.75-5.91,36.45-10.84c10.02-4.22,20.35-4.48,32.22-2.34
		c-12.22,4.26-22.09,10.37-31.88,16.73c-4.42,2.87-10.02,2.51-15.14,1.88C329.56,220.1,322.36,218.08,315.33,215.57z"/>
	<path class="st2" d="M369.86,196.52c-5.65,0.09-11.14,0.04-16.52,1.39c-2.31,0.58-4.17-0.17-6.01-1.55
		c-12.27-9.23-16.58-21.47-13.86-37.68c4.54,8.67,9,16.12,15.15,22.34C354.84,187.32,361.98,192.35,369.86,196.52z"/>
	<path class="st1" d="M798.93,343.06c0.13-0.26,0.25-0.53,0.38-0.79c0.09,0.2,0.18,0.4,0.27,0.6c-0.24,0.03-0.49,0.06-0.73,0.09
		C798.85,342.96,798.93,343.06,798.93,343.06z"/>
	<path class="st2" d="M416.03,822.91c0.13,0.08,0.25,0.16,0.38,0.24c-0.16-0.05-0.31-0.1-0.47-0.16
		C415.94,823,416.03,822.91,416.03,822.91z"/>
	<path class="st1" d="M605.35,234.44c-0.36,0.13-0.97,0.45-1.03,0.37c-0.35-0.5,0.04-0.74,0.48-0.91
		C604.99,234.09,605.17,234.26,605.35,234.44z"/>
	<path class="st1" d="M665.89,559.95c0.09-0.22,0.16-0.45,0.27-0.65c0.01-0.02,0.27,0.1,0.41,0.15c-0.21,0.18-0.42,0.37-0.63,0.55
		C665.94,559.99,665.89,559.95,665.89,559.95z"/>
	<path class="st1" d="M134.99,560.05c-0.19-0.18-0.38-0.35-0.57-0.53c0.35,0.03,0.69,0.06,1.04,0.09
		C135.31,559.76,135.15,559.9,134.99,560.05z"/>
	<path class="st0" d="M576.75,978.94c1.37-1.9-2.02-5.86,2.75-6.03c4.2-0.14,5.72,2.8,5.8,6.48c0.07,3.46-1.06,6.34-5.23,6.26
		C574.64,985.54,578.12,981.17,576.75,978.94z"/>
	<path class="st0" d="M432.8,986.19c-0.13,7.23-3.48,11.53-9.01,11.54c-6.82,0.02-11.78-5.97-11.66-14.08
		c0.1-7.29,3.7-11.34,9.88-11.13C428.53,972.74,432.94,978.33,432.8,986.19z"/>
	<path class="st0" d="M200.48,978.15c1.66,3.24,2.88,6.16,3.56,9.55c-2.44-0.09-6.1,1.07-6.5-0.53
		C196.83,984.31,199.26,981.44,200.48,978.15z"/>
	<path class="st0" d="M638.89,306.97c0.19-0.22,0.38-0.44,0.57-0.66c0.62,0.58,0.18,0.75-0.34,0.9
		C639.12,307.22,638.89,306.97,638.89,306.97z"/>
	<path class="st0" d="M373.46,901.35c-0.31,4.99-0.33,9.31-1.22,13.59c-5.3,25.4-31.48,34.34-51.39,17.51
		c-6.03-5.1-10.02-11.55-12.4-18.96c-3.54-11.03-3.84-22.32-1.1-33.51c6.84-28,37.2-26.9,51.34-15.1
		C370.53,874.75,372.95,887.89,373.46,901.35z"/>
</g>
<g id="Layer_2">
	<rect x="153" y="963" class="st3" width="478.22" height="36.9"/>
</g>
</svg>
